<svg width="25" height="28" viewBox="0 0 25 28" fill="none" xmlns="http://www.w3.org/2000/svg">
<path d="M16.5833 20.8333H23.6667L21.6763 18.843C21.1366 18.3032 20.8333 17.5712 20.8333 16.8078V12.3333C20.8333 8.63239 18.468 5.48387 15.1667 4.31701V3.83333C15.1667 2.26853 13.8981 1 12.3333 1C10.7685 1 9.5 2.26853 9.5 3.83333V4.31701C6.19862 5.48387 3.83333 8.63239 3.83333 12.3333V16.8078C3.83333 17.5712 3.53009 18.3032 2.99032 18.843L1 20.8333H8.08333M16.5833 20.8333V22.25C16.5833 24.5972 14.6805 26.5 12.3333 26.5C9.98612 26.5 8.08333 24.5972 8.08333 22.25V20.8333M16.5833 20.8333H8.08333" stroke="#111827" stroke-width="2" stroke-linecap="round" stroke-linejoin="round"/>
</svg>
