<svg xmlns="http://www.w3.org/2000/svg" viewBox="0 0 27.5 27.5"><defs><style>.cls-1{fill:none;stroke:#111827;stroke-linecap:round;stroke-linejoin:round;stroke-width:2px;}</style></defs><g id="Calque_2" data-name="Calque 2"><g id="Calque_1-2" data-name="Calque 1"><path class="cls-1" d="M1,3.83A2.83,2.83,0,0,1,3.83,1H8.48A1.41,1.41,0,0,1,9.82,2l2.12,6.36a1.42,1.42,0,0,1-.71,1.72L8,11.65a15.64,15.64,0,0,0,7.81,7.81l1.6-3.19a1.42,1.42,0,0,1,1.72-.71l6.36,2.12a1.41,1.41,0,0,1,1,1.34v4.65a2.83,2.83,0,0,1-2.83,2.83H22.25A21.24,21.24,0,0,1,1,5.25Z"/></g></g></svg>